<?xml version="1.0" encoding="utf-8"?>
<!-- Generator: Adobe Illustrator 16.0.0, SVG Export Plug-In . SVG Version: 6.00 Build 0)  -->
<!DOCTYPE svg PUBLIC "-//W3C//DTD SVG 1.1//EN" "http://www.w3.org/Graphics/SVG/1.1/DTD/svg11.dtd">
<svg version="1.1" id="Lager_1" xmlns="http://www.w3.org/2000/svg" xmlns:xlink="http://www.w3.org/1999/xlink" x="0px" y="0px"
	 width="100px" height="100px" viewBox="0 0 100 100" enable-background="new 0 0 100 100" xml:space="preserve">
<g>
	<path fill="#F9CAD1" d="M99.75,89.8c0,5.473-4.478,9.95-9.95,9.95H10.2c-5.473,0-9.95-4.478-9.95-9.95V10.2
		c0-5.473,4.478-9.95,9.95-9.95h79.6c5.473,0,9.95,4.478,9.95,9.95V89.8z"/>
</g>
<g>
	<path d="M52.948,57.667c1.475,0.422,2.51,1.143,3.106,2.159c0.597,1.019,0.79,2.02,0.58,3.001c-0.211,0.984-0.79,1.826-1.738,2.527
		c-0.947,0.702-2.194,0.947-3.738,0.737c-2.105-0.421-3.861-1.246-5.265-2.475c-1.406-1.229-2.424-2.649-3.055-4.265
		c-0.633-1.615-0.809-3.371-0.526-5.266c0.279-1.896,1.088-3.721,2.422-5.477c0.843-1.122,1.982-2.265,3.422-3.423
		c1.438-1.158,2.897-2.317,4.371-3.475c1.475-1.158,2.843-2.333,4.107-3.529c1.264-1.192,2.158-2.438,2.685-3.737
		c0.527-1.298,0.562-2.634,0.106-4.002c-0.459-1.369-1.704-2.791-3.739-4.266c-0.21-0.068-0.422-0.139-0.632-0.21
		c-0.211-0.069-0.457-0.14-0.737-0.211c-3.019,0.142-5.792,1.054-8.319,2.738c-2.528,1.686-4.705,3.723-6.528,6.108
		c-0.985,1.194-2.055,1.86-3.212,2.001c-1.16,0.141-2.16-0.088-3.002-0.685c-0.843-0.597-1.388-1.475-1.633-2.634
		c-0.247-1.158,0.053-2.403,0.896-3.738c1.403-1.824,3.07-3.58,5.001-5.265c1.932-1.685,4.002-3.09,6.214-4.213
		c2.212-1.122,4.476-1.93,6.793-2.422c2.316-0.49,4.528-0.509,6.635-0.053c2.105,0.457,4.054,1.457,5.845,3.001
		c1.79,1.546,3.281,3.791,4.476,6.739c0.772,1.896,1.087,3.723,0.947,5.477c-0.141,1.756-0.562,3.44-1.264,5.056
		c-0.702,1.615-1.649,3.106-2.843,4.476c-1.195,1.369-2.527,2.65-4.002,3.844c-0.492,0.421-1.354,1.036-2.581,1.842
		c-1.229,0.809-2.405,1.723-3.526,2.738c-1.125,1.019-2.02,2.072-2.686,3.161c-0.669,1.088-0.755,2.158-0.264,3.212
		c0.14,0.141,0.245,0.21,0.315,0.21c0.212,0.141,0.438,0.211,0.686,0.211C52.51,57.562,52.738,57.599,52.948,57.667z M44.103,76.834
		c0-1.615,0.561-2.983,1.685-4.107c1.122-1.122,2.492-1.686,4.107-1.686c1.614,0,3.001,0.563,4.159,1.686
		c1.159,1.124,1.737,2.492,1.737,4.107s-0.578,3-1.737,4.16c-1.158,1.157-2.545,1.737-4.159,1.737c-1.615,0-2.985-0.58-4.107-1.737
		C44.663,79.834,44.103,78.449,44.103,76.834z"/>
</g>
</svg>
