<?xml version="1.0" encoding="utf-8"?>
<!-- Generator: Adobe Illustrator 16.0.0, SVG Export Plug-In . SVG Version: 6.00 Build 0)  -->
<!DOCTYPE svg PUBLIC "-//W3C//DTD SVG 1.1//EN" "http://www.w3.org/Graphics/SVG/1.1/DTD/svg11.dtd">
<svg version="1.1" id="Lager_1" xmlns="http://www.w3.org/2000/svg" xmlns:xlink="http://www.w3.org/1999/xlink" x="0px" y="0px"
	 width="100px" height="100px" viewBox="0 0 100 100" enable-background="new 0 0 100 100" xml:space="preserve">
<g>
	<path fill="#F9CAD1" d="M99.75,89.8c0,5.473-4.478,9.95-9.95,9.95H10.2c-5.473,0-9.95-4.478-9.95-9.95V10.2
		c0-5.473,4.478-9.95,9.95-9.95h79.6c5.473,0,9.95,4.478,9.95,9.95V89.8z"/>
</g>
<g>
	<path d="M50.046,82.014c-4.635-7.195-10.29-14.741-16.968-22.639c-1.098-1.401-1.875-2.378-2.332-2.927
		c-4.116-5.061-6.937-9.261-8.461-12.6c-1.525-3.339-2.287-6.715-2.287-10.13c0-4.635,1.304-8.415,3.91-11.342
		c2.607-2.928,5.923-4.391,9.947-4.391c2.865,0,5.412,0.822,7.638,2.469c2.226,1.647,3.979,3.995,5.259,7.043
		c0.184,0.397,0.412,0.961,0.688,1.693c0.792,2.316,1.66,3.475,2.606,3.475c0.914,0,1.753-1.098,2.515-3.292
		c0.152-0.487,0.289-0.854,0.412-1.098c1.189-3.293,2.934-5.831,5.236-7.614c2.302-1.784,4.946-2.676,7.936-2.676
		c4.024,0,7.34,1.463,9.946,4.391c2.606,2.927,3.911,6.707,3.911,11.342c0,3.354-0.748,6.686-2.241,9.992
		c-1.494,3.31-4.33,7.555-8.507,12.737c-0.549,0.702-1.524,1.891-2.927,3.567C59.68,68.035,54.253,75.367,50.046,82.014z"/>
</g>
</svg>
