<?xml version="1.0" encoding="utf-8"?>
<!-- Generator: Adobe Illustrator 16.0.0, SVG Export Plug-In . SVG Version: 6.00 Build 0)  -->
<!DOCTYPE svg PUBLIC "-//W3C//DTD SVG 1.1//EN" "http://www.w3.org/Graphics/SVG/1.1/DTD/svg11.dtd">
<svg version="1.1" id="Lager_1" xmlns="http://www.w3.org/2000/svg" xmlns:xlink="http://www.w3.org/1999/xlink" x="0px" y="0px"
	 width="100px" height="100px" viewBox="0 0 100 100" enable-background="new 0 0 100 100" xml:space="preserve">
<g>
	<path fill="#F9CAD1" d="M99.75,89.8c0,5.473-4.478,9.95-9.95,9.95H10.2c-5.473,0-9.95-4.478-9.95-9.95V10.2
		c0-5.473,4.478-9.95,9.95-9.95h79.6c5.473,0,9.95,4.478,9.95,9.95V89.8z"/>
</g>
<g>
	<path d="M61.372,37.498c1.229-1.661,2.845-2.999,4.844-4.029s4.029-1.553,6.09-1.553c3.444,0,6.366,1.322,8.766,3.967
		c2.398,2.645,3.599,5.859,3.599,9.642c0,3.568-1.207,6.49-3.622,8.765c-2.414,2.276-5.544,3.414-9.388,3.414
		c-0.738,0-1.415-0.046-2.03-0.138c-0.615-0.093-1.23-0.231-1.846-0.416l-3.782-1.153c-0.123,0.216-0.216,0.415-0.277,0.6
		s-0.092,0.339-0.092,0.462l3.69,1.338c2.769,0.984,5.013,2.614,6.735,4.875c1.723,2.26,2.584,4.721,2.584,7.396
		c0,3.414-1.377,6.443-4.129,9.073c-2.753,2.63-5.913,3.937-9.48,3.937c-3.322,0-6.229-1.322-8.72-3.968
		c-2.491-2.645-3.737-5.689-3.737-9.134v-4.061H49.47l-0.139,3.968c-0.093,3.722-1.33,6.858-3.714,9.396
		c-2.384,2.538-5.267,3.799-8.65,3.799c-3.567,0-6.728-1.307-9.48-3.937c-2.752-2.63-4.129-5.659-4.129-9.073
		c0-2.676,0.9-5.197,2.699-7.581s3.99-3.983,6.574-4.783l3.783-1.291c-0.031-0.154-0.101-0.369-0.208-0.646
		c-0.108-0.276-0.161-0.431-0.161-0.461l-3.783,1.245c-0.554,0.185-1.177,0.323-1.869,0.416c-0.691,0.092-1.422,0.138-2.191,0.138
		c-3.752,0-6.835-1.138-9.249-3.429c-2.415-2.292-3.622-5.213-3.622-8.75c0-3.813,1.199-7.028,3.599-9.657
		c2.399-2.63,5.321-3.952,8.766-3.952c2.061,0,4.105,0.507,6.136,1.522c2.029,1.015,3.645,2.337,4.844,3.967l2.399,3.184
		c0.062-0.031,0.146-0.077,0.253-0.154c0.108-0.077,0.331-0.246,0.67-0.492l-2.261-3.183c-0.831-1.169-1.469-2.46-1.915-3.875
		c-0.445-1.415-0.669-2.845-0.669-4.291c0-3.567,1.208-6.505,3.622-8.812s5.497-3.46,9.25-3.46c3.752,0,6.827,1.153,9.227,3.46
		c2.398,2.307,3.598,5.244,3.598,8.812c0,1.507-0.215,2.983-0.646,4.414s-1.03,2.676-1.799,3.752l-2.353,3.275
		c0.215,0.123,0.399,0.246,0.553,0.354c0.154,0.108,0.277,0.215,0.369,0.338L61.372,37.498z M61.648,52.03
		c0-3.261-1.122-6.013-3.367-8.258s-4.998-3.368-8.258-3.368c-3.261,0-6.014,1.123-8.258,3.368
		c-2.246,2.245-3.368,4.998-3.368,8.258c0,3.26,1.122,6.013,3.368,8.258c2.244,2.245,4.997,3.367,8.258,3.367
		c3.26,0,6.013-1.122,8.258-3.367S61.648,55.29,61.648,52.03z"/>
</g>
</svg>
