<?xml version="1.0" encoding="utf-8"?>
<!-- Generator: Adobe Illustrator 16.0.0, SVG Export Plug-In . SVG Version: 6.00 Build 0)  -->
<!DOCTYPE svg PUBLIC "-//W3C//DTD SVG 1.1//EN" "http://www.w3.org/Graphics/SVG/1.1/DTD/svg11.dtd">
<svg version="1.1" id="Lager_1" xmlns="http://www.w3.org/2000/svg" xmlns:xlink="http://www.w3.org/1999/xlink" x="0px" y="0px"
	 width="100px" height="100px" viewBox="0 0 100 100" enable-background="new 0 0 100 100" xml:space="preserve">
<g>
	<path fill="#F9CAD1" d="M99.75,89.8c0,5.473-4.478,9.95-9.95,9.95H10.2c-5.473,0-9.95-4.478-9.95-9.95V10.2
		c0-5.473,4.478-9.95,9.95-9.95h79.6c5.473,0,9.95,4.478,9.95,9.95V89.8z"/>
</g>
<g>
	<path d="M83.654,50.941c-5.54,2.296-9.955,4.361-13.246,6.198c-3.29,1.837-5.854,3.658-7.69,5.464
		c-1.806,1.806-3.627,4.347-5.464,7.621c-1.836,3.275-3.933,7.76-6.29,13.453h-1.882c-2.388-5.693-4.5-10.178-6.336-13.453
		c-1.837-3.274-3.643-5.815-5.418-7.621c-1.837-1.806-4.4-3.627-7.691-5.464c-3.29-1.837-7.721-3.902-13.291-6.198v-1.883
		c5.602-2.295,10.047-4.362,13.338-6.198c3.29-1.836,5.838-3.658,7.645-5.464c1.775-1.806,3.581-4.346,5.418-7.622
		c1.836-3.275,3.948-7.759,6.336-13.453h1.882c2.357,5.693,4.454,10.178,6.29,13.453c1.837,3.275,3.658,5.816,5.464,7.622
		c1.775,1.806,4.309,3.627,7.599,5.464c3.291,1.836,7.736,3.903,13.338,6.198V50.941z"/>
</g>
</svg>
