<?xml version="1.0" encoding="utf-8"?>
<!-- Generator: Adobe Illustrator 16.0.0, SVG Export Plug-In . SVG Version: 6.00 Build 0)  -->
<!DOCTYPE svg PUBLIC "-//W3C//DTD SVG 1.1//EN" "http://www.w3.org/Graphics/SVG/1.1/DTD/svg11.dtd">
<svg version="1.1" id="Lager_1" xmlns="http://www.w3.org/2000/svg" xmlns:xlink="http://www.w3.org/1999/xlink" x="0px" y="0px"
	 width="100px" height="100px" viewBox="0 0 100 100" enable-background="new 0 0 100 100" xml:space="preserve">
<g>
	<path fill="#F9CAD1" d="M99.75,89.8c0,5.473-4.478,9.95-9.95,9.95H10.2c-5.473,0-9.95-4.478-9.95-9.95V10.2
		c0-5.473,4.478-9.95,9.95-9.95h79.6c5.473,0,9.95,4.478,9.95,9.95V89.8z"/>
</g>
<g>
	<path d="M65.228,57.104c0.898-0.897,1.818-1.564,2.76-1.999c0.941-0.434,1.919-0.651,2.933-0.651c2.114,0,3.925,0.768,5.431,2.288
		s2.259,3.331,2.259,5.445s-0.738,3.896-2.216,5.33c-1.477,1.434-3.302,2.143-5.474,2.143c-2.114,0-3.903-0.724-5.366-2.172
		S63.36,64.243,63.36,62.1c0-0.463,0.028-0.883,0.086-1.274c0.059-0.391,0.16-0.768,0.305-1.115l-12.295-7.125v14.207
		c2.085,0.666,3.627,1.607,4.627,2.824c0.999,1.217,1.498,2.737,1.498,4.562c0,2.144-0.73,3.969-2.193,5.46
		c-1.463,1.492-3.252,2.23-5.366,2.23c-2.144,0-3.953-0.738-5.431-2.23c-1.477-1.491-2.216-3.316-2.216-5.46
		c0-1.737,0.507-3.215,1.521-4.445c1.014-1.231,2.549-2.216,4.605-2.94v-14.12L36.249,59.71c0.116,0.348,0.203,0.725,0.261,1.115
		c0.058,0.392,0.087,0.812,0.087,1.274c0,2.144-0.731,3.954-2.194,5.431c-1.462,1.478-3.251,2.216-5.365,2.216
		s-3.917-0.753-5.409-2.259s-2.237-3.302-2.237-5.388c0-2.114,0.745-3.896,2.237-5.358s3.295-2.201,5.409-2.201
		c1.071,0,2.063,0.217,2.976,0.638c0.913,0.42,1.818,1.057,2.716,1.926l12.296-7.125l-12.383-7.082
		c-0.898,0.869-1.803,1.521-2.715,1.94c-0.913,0.42-1.905,0.623-2.977,0.623c-2.144,0-3.939-0.725-5.388-2.173
		s-2.172-3.243-2.172-5.387c0-2.086,0.738-3.882,2.216-5.388c1.477-1.506,3.258-2.26,5.344-2.26c2.114,0,3.918,0.739,5.409,2.217
		c1.491,1.477,2.237,3.287,2.237,5.431c0,0.463-0.029,0.897-0.087,1.288c-0.058,0.392-0.145,0.754-0.261,1.102l12.252,7.125V33.164
		c-2.085-0.753-3.628-1.737-4.627-2.954s-1.499-2.723-1.499-4.519c0-2.085,0.746-3.866,2.237-5.344
		c1.492-1.478,3.295-2.216,5.409-2.216c2.086,0,3.867,0.738,5.345,2.216c1.477,1.478,2.215,3.259,2.215,5.344
		c0,1.854-0.506,3.403-1.521,4.635c-1.014,1.23-2.549,2.172-4.604,2.838v14.251l12.382-7.125c-0.174-0.464-0.297-0.884-0.369-1.275
		c-0.072-0.391-0.108-0.768-0.108-1.114c0-2.144,0.745-3.954,2.237-5.431c1.491-1.478,3.294-2.217,5.409-2.217
		c2.114,0,3.91,0.739,5.387,2.217c1.478,1.477,2.216,3.258,2.216,5.344c0,2.114-0.738,3.924-2.216,5.416
		c-1.477,1.492-3.272,2.23-5.387,2.23c-1.101,0-2.115-0.203-3.041-0.623c-0.928-0.42-1.811-1.071-2.65-1.94l-12.252,7.082
		L65.228,57.104z"/>
</g>
</svg>
