<?xml version="1.0" encoding="utf-8"?>
<!-- Generator: Adobe Illustrator 16.0.0, SVG Export Plug-In . SVG Version: 6.00 Build 0)  -->
<!DOCTYPE svg PUBLIC "-//W3C//DTD SVG 1.1//EN" "http://www.w3.org/Graphics/SVG/1.1/DTD/svg11.dtd">
<svg version="1.1" id="Lager_1" xmlns="http://www.w3.org/2000/svg" xmlns:xlink="http://www.w3.org/1999/xlink" x="0px" y="0px"
	 width="100px" height="100px" viewBox="0 0 100 100" enable-background="new 0 0 100 100" xml:space="preserve">
<g>
	<path fill="#F9CAD1" d="M99.75,89.8c0,5.473-4.478,9.95-9.95,9.95H10.2c-5.473,0-9.95-4.478-9.95-9.95V10.2
		c0-5.473,4.478-9.95,9.95-9.95h79.6c5.473,0,9.95,4.478,9.95,9.95V89.8z"/>
</g>
<g>
	<path d="M45.611,49.979l-13.773,13.73L18.15,49.979l13.688-13.688L45.611,49.979z M63.688,31.946L50,45.633L36.27,31.946L50,18.129
		L63.688,31.946z M63.688,68.141L50,81.871l-13.73-13.73L50,54.454L63.688,68.141z M81.85,49.979l-13.688,13.73l-13.817-13.73
		l13.817-13.688L81.85,49.979z"/>
</g>
</svg>
