<?xml version="1.0" encoding="iso-8859-1"?>
<!-- Generator: Adobe Illustrator 16.0.0, SVG Export Plug-In . SVG Version: 6.00 Build 0)  -->
<!DOCTYPE svg PUBLIC "-//W3C//DTD SVG 1.1//EN" "http://www.w3.org/Graphics/SVG/1.1/DTD/svg11.dtd">
<svg version="1.1" id="Capa_1" xmlns="http://www.w3.org/2000/svg" xmlns:xlink="http://www.w3.org/1999/xlink" x="0px" y="0px"
	 width="37.065px" height="32.114px" viewBox="0 0 37.065 32.114" style="enable-background:new 0 0 37.065 32.114;"
	 xml:space="preserve">
<path d="M36.785,10.08L15.787,0.049c-0.244-0.118-0.539-0.016-0.654,0.227l-4.57,9.565h2.49l3.354-7.028l18.205,8.696l-5.693,11.915
	l-3.205-1.53v6.299l1.971,0.941c0.246,0.119,0.537,0.012,0.654-0.232l8.678-18.171C37.135,10.489,37.031,10.196,36.785,10.08z"/>
<path d="M23.764,10.996H0.492C0.223,10.996,0,11.215,0,11.484v20.139c0,0.27,0.223,0.491,0.492,0.491h23.271
	c0.271,0,0.492-0.221,0.492-0.491V11.484C24.256,11.215,24.035,10.996,23.764,10.996z M22.42,26.43h-1.475
	c-0.859-2.203-1.916-5.287-3.521-4.875c-1.881,0.48-2.82,4.875-2.82,4.875s-0.963-4.959-3.617-7.614
	C8.332,16.161,5.76,26.43,5.76,26.43H2.246V13.223H22.42V26.43z"/>
<circle cx="5.502" cy="16.057" r="1.646"/>
<path d="M16.545,17.219c0.369,0,0.715-0.039,1.023-0.1c0.359,0.152,0.797,0.245,1.268,0.245c1.215,0,2.197-0.593,2.197-1.325
	c0-0.73-0.982-1.323-2.197-1.323c-0.455,0-0.877,0.083-1.227,0.228c-0.145-0.141-0.338-0.228-0.553-0.228h-0.318
	c-0.408,0-0.729,0.309-0.775,0.702c-0.982,0.103-1.713,0.459-1.713,0.883C14.25,16.808,15.277,17.219,16.545,17.219z"/>
<g>
</g>
<g>
</g>
<g>
</g>
<g>
</g>
<g>
</g>
<g>
</g>
<g>
</g>
<g>
</g>
<g>
</g>
<g>
</g>
<g>
</g>
<g>
</g>
<g>
</g>
<g>
</g>
<g>
</g>
</svg>
