<?xml version="1.0" encoding="utf-8"?>
<!-- Generator: Adobe Illustrator 16.0.0, SVG Export Plug-In . SVG Version: 6.00 Build 0)  -->
<!DOCTYPE svg PUBLIC "-//W3C//DTD SVG 1.1//EN" "http://www.w3.org/Graphics/SVG/1.1/DTD/svg11.dtd">
<svg version="1.1" id="Lager_1" xmlns="http://www.w3.org/2000/svg" xmlns:xlink="http://www.w3.org/1999/xlink" x="0px" y="0px"
	 width="14.17px" height="14.17px" viewBox="0 0 14.17 14.17" enable-background="new 0 0 14.17 14.17" xml:space="preserve">
<path fill="#E62063" d="M14.068,7.085c0-3.84-3.143-6.982-6.982-6.982H7.084c-3.84,0-6.982,3.142-6.982,6.982v0.001
	c0,3.84,3.142,6.982,6.982,6.982h0.001c0.013,0,0.025-0.002,0.038-0.002h6.942V7.124C14.066,7.111,14.068,7.099,14.068,7.085
	L14.068,7.085z"/>
<g>
	<path fill="#FFFFFF" d="M3.442,9.268l2.165-2.166L3.425,4.919L4.92,3.424l2.182,2.183l2.165-2.166l1.455,1.455L8.557,7.062
		l2.188,2.189L9.25,10.746L7.062,8.558l-2.165,2.164L3.442,9.268z"/>
</g>
</svg>
